<svg xmlns="http://www.w3.org/2000/svg" id="Capa_1" width="24" height="24" enable-background="new 0 0 512 512" viewBox="0 0 512 512"><g><path fill="#09a1e5" d="m324.009 373.796v103.937h60.008c38.848-22.477 71.238-54.868 93.715-93.715v-60.008h-103.936c-11.941 20.637-29.149 37.845-49.787 49.786z"/><path fill="#962b7c" d="m373.796 187.991h103.937v-60.008c-22.477-38.848-54.868-71.238-93.715-93.715h-60.008v103.937c20.637 11.94 37.845 29.148 49.786 49.786z"/><path fill="#ff9259" d="m187.991 138.204v-103.937h-60.008c-38.848 22.477-71.238 54.868-93.715 93.715v60.008h103.937c11.94-20.637 29.148-37.845 49.786-49.786z"/><path fill="#3ec3ff" d="m256 392-60 60 60 60c46.638 0 90.359-12.478 128.018-34.267l-60.008-103.937c-20.007 11.575-43.234 18.204-68.01 18.204z"/><path fill="#49b296" d="m138.204 324.009h-103.937v60.008c22.477 38.848 54.868 71.238 93.715 93.715h42.82l17.188-103.937c-20.637-11.94-37.845-29.148-49.786-49.786z"/><path fill="#077ccc" d="m392 256c0 24.776-6.629 48.003-18.204 68.009l103.937 60.008c21.79-37.659 34.267-81.379 34.267-128.017l-60-40z"/><path fill="#2897b1" d="m187.991 373.796-60.008 103.937c37.658 21.789 81.379 34.267 128.017 34.267v-120c-24.776 0-48.003-6.629-68.009-18.204z"/><path fill="#89c247" d="m120 256-60-30-60 30c0 46.638 12.477 90.358 34.267 128.018l103.937-60.008c-11.575-20.007-18.204-43.234-18.204-68.01z"/><path fill="#622876" d="m392 256h120c0-46.638-12.477-90.358-34.267-128.018l-103.937 60.008c11.575 20.007 18.204 43.234 18.204 68.01z"/><path fill="#cb2e81" d="m324.009 138.204 60.008-103.937c-37.658-21.789-81.379-34.267-128.017-34.267l-60 60 60 60c24.776 0 48.003 6.629 68.009 18.204z"/><path fill="#ff5178" d="m256 120v-120c-46.638 0-90.359 12.478-128.018 34.267l60.008 103.937c20.007-11.575 43.234-18.204 68.01-18.204z"/><path fill="#ffd23b" d="m138.204 187.991-103.937-60.009c-21.79 37.66-34.267 81.38-34.267 128.018h120c0-24.776 6.629-48.003 18.204-68.009z"/><path fill="#09a1e5" d="m347.811 202.993h-151.811l60 159.007c58.542 0 106-47.458 106-106 0-19.311-5.166-37.414-14.189-53.007z"/><path fill="#ffd23b" d="m164.189 202.993c-9.023 15.593-14.189 33.696-14.189 53.007 0 58.542 47.458 106 106 106v-159.007z"/><path fill="#ff3187" d="m347.811 202.993c-18.329-31.679-52.58-52.993-91.811-52.993l-30 53 30 53z"/><path fill="#ff5178" d="m256 150c-39.231 0-73.482 21.314-91.811 52.993l91.811 53.007z"/></g></svg>